<svg data-v-0dd9719b="" version="1.0" xmlns="http://www.w3.org/2000/svg" xmlns:xlink="http://www.w3.org/1999/xlink" width="100%" height="100%" viewBox="0 0 340.000000 250.000000" preserveAspectRatio="xMidYMid meet" color-interpolation-filters="sRGB" style="margin: auto;"> <rect data-v-0dd9719b="" x="0" y="0" width="100%" height="100%" fill="#fff" fill-opacity="1" class="background"></rect> <rect data-v-0dd9719b="" x="0" y="0" width="100%" height="100%" fill="url(#watermark)" fill-opacity="1" class="watermarklayer"></rect> <g data-v-0dd9719b="" fill="#445665" class="icon-text-wrapper icon-svg-group iconsvg" transform="translate(74.54999542239625,97.60073852539062)"><g class="iconsvg-imagesvg" transform="translate(0,0)"><g><rect fill="#445665" fill-opacity="0" stroke-width="2" x="0" y="0" width="60" height="54.79852409308443" class="image-rect"></rect> <svg x="0" y="0" width="60" height="54.79852409308443" filtersec="colorsb775977350" class="image-svg-svg primary" style="overflow: visible;"><svg xmlns="http://www.w3.org/2000/svg" viewBox="0.0006594061851501465 0 105.91197204589844 96.7300033569336"><g><g><path d="M74.5 0H.46s-6 28.22 25.37 28.22H72c3.08 0 4.72 1.94 4.27 3.69l-.49 1.9c-.45 1.74-3.09 3.68-6.17 3.68H27.32L12 96.73h28.27l8-31h14c31.58 0 37.13-14.31 41.66-31.9l.49-1.9C109 14.31 103.66 0 74.5 0z" fill="#6f8397"></path><path d="M104 33.81l.49-1.9a39.77 39.77 0 0 0 1.42-11c-12.3-4.91-36.56-3.55-36.56-3.55S64 23.08 61.27 28.22H72c3.08 0 4.72 1.94 4.27 3.69l-.49 1.9a3.53 3.53 0 0 1-.58 1.12c16.34-.47 26.63 10.18 21.14 17.89 3.78-5.31 5.79-11.89 7.66-19.01z" fill="#445665"></path><path d="M104 33.81l.49-1.9C109 14.31 103.66 0 74.5 0H.46s-6 28.22 25.37 28.22H72c26.79 0 29.43 16.81 25 23.59 3.37-5.12 5.24-11.33 7-18z" fill="#f30"></path></g></g></svg></svg> <!----></g></g> <g transform="translate(67,4.169261932373047)"><g data-gra="path-name" fill-rule="" class="tp-name iconsvg-namesvg"><g transform="scale(1)"><g><path d="M24.63-41.39L11.93-41.39 11.93-25.14 24.38-25.14Q34.02-25.14 34.02-33.52L34.02-33.52Q34.02-41.13 24.63-41.39L24.63-41.39ZM26.66-19.55L11.93-19.55 11.93 0 5.59 0 5.59-46.46 26.66-46.46Q39.86-45.96 40.37-33.52L40.37-33.52Q39.61-20.06 26.66-19.55L26.66-19.55ZM67.79-41.39L55.1-41.39 55.1-25.14 67.54-25.14Q77.19-25.14 77.19-33.52L77.19-33.52Q77.19-41.13 67.79-41.39L67.79-41.39ZM69.82-19.55L55.1-19.55 55.1 0 48.75 0 48.75-46.46 69.82-46.46Q83.03-45.96 83.54-33.52L83.54-33.52Q82.77-20.06 69.82-19.55L69.82-19.55ZM104.86-23.36L97.5-16.5 97.5 0 91.15 0 91.15-46.46 97.5-46.46 97.5-23.87 120.1-46.46 128.98-46.46 109.43-27.68 129.49 0 121.11 0 104.86-23.36Z" transform="translate(-5.590000152587891, 46.459999084472656)"></path></g> <!----> <!----> <!----> <!----> <!----> <!----> <!----></g></g> <!----></g></g><defs v-gra="od"></defs></svg>